<mxfile host="app.diagrams.net" modified="2020-10-12T11:22:02.648Z" agent="5.0 (Windows NT 6.1; Win64; x64) AppleWebKit/537.36 (KHTML, like Gecko) Chrome/86.0.4240.75 Safari/537.36" etag="yh1jCs9SN6JIA-3gN9wN" version="13.7.9" type="github">
  <diagram id="C8xHlshlXnK8BwlyWL1j" name="第 1 页">
    <mxGraphModel dx="1102" dy="582" grid="1" gridSize="10" guides="1" tooltips="1" connect="1" arrows="1" fold="1" page="1" pageScale="1" pageWidth="827" pageHeight="1169" math="0" shadow="0">
      <root>
        <mxCell id="0" />
        <mxCell id="1" parent="0" />
        <mxCell id="olMeW2LqUi-OIHSeSv1Y-3" value="&lt;font style=&quot;font-size: 20px&quot;&gt;&lt;b&gt;CPU&lt;/b&gt;&lt;/font&gt;" style="rounded=1;whiteSpace=wrap;html=1;strokeWidth=1;fillWeight=4;hachureGap=8;hachureAngle=45;sketch=1;fontSize=16;horizontal=1;verticalAlign=top;fillColor=#f5f5f5;strokeColor=#666666;fontColor=#333333;" vertex="1" parent="1">
          <mxGeometry x="257.5" y="180" width="220" height="380" as="geometry" />
        </mxCell>
        <mxCell id="olMeW2LqUi-OIHSeSv1Y-1" value="寄存器" style="rounded=1;whiteSpace=wrap;html=1;strokeWidth=1;fillWeight=4;hachureGap=8;hachureAngle=45;fillColor=#dae8fc;sketch=1;strokeColor=#6c8ebf;fontSize=16;" vertex="1" parent="1">
          <mxGeometry x="298.75" y="220" width="140" height="60" as="geometry" />
        </mxCell>
        <mxCell id="olMeW2LqUi-OIHSeSv1Y-4" value="L1 Cache" style="rounded=1;whiteSpace=wrap;html=1;strokeWidth=1;fillWeight=4;hachureGap=8;hachureAngle=45;fillColor=#d5e8d4;sketch=1;strokeColor=#82b366;fontSize=16;" vertex="1" parent="1">
          <mxGeometry x="297.5" y="320" width="142.5" height="60" as="geometry" />
        </mxCell>
        <mxCell id="olMeW2LqUi-OIHSeSv1Y-5" value="L2 Cache" style="rounded=1;whiteSpace=wrap;html=1;strokeWidth=1;fillWeight=4;hachureGap=8;hachureAngle=45;fillColor=#d5e8d4;sketch=1;strokeColor=#82b366;fontSize=16;" vertex="1" parent="1">
          <mxGeometry x="297.5" y="400" width="142.5" height="60" as="geometry" />
        </mxCell>
        <mxCell id="olMeW2LqUi-OIHSeSv1Y-6" value="L3 Cache" style="rounded=1;whiteSpace=wrap;html=1;strokeWidth=1;fillWeight=4;hachureGap=8;hachureAngle=45;fillColor=#d5e8d4;sketch=1;strokeColor=#82b366;fontSize=16;" vertex="1" parent="1">
          <mxGeometry x="298.75" y="480" width="143.75" height="60" as="geometry" />
        </mxCell>
        <mxCell id="olMeW2LqUi-OIHSeSv1Y-7" value="内存" style="rounded=1;whiteSpace=wrap;html=1;strokeWidth=1;fillWeight=4;hachureGap=8;hachureAngle=45;fillColor=#ffe6cc;sketch=1;strokeColor=#d79b00;fontSize=16;" vertex="1" parent="1">
          <mxGeometry x="265" y="570" width="205" height="80" as="geometry" />
        </mxCell>
        <mxCell id="olMeW2LqUi-OIHSeSv1Y-8" value="SSD/HDD 硬盘" style="rounded=1;whiteSpace=wrap;html=1;strokeWidth=1;fillWeight=4;hachureGap=8;hachureAngle=45;fillColor=#e1d5e7;sketch=1;strokeColor=#9673a6;fontSize=16;" vertex="1" parent="1">
          <mxGeometry x="267.5" y="670" width="205" height="80" as="geometry" />
        </mxCell>
      </root>
    </mxGraphModel>
  </diagram>
</mxfile>
